<svg xmlns="http://www.w3.org/2000/svg" width="720" height="220" viewBox="0 0 720 220" role="img" aria-labelledby="title desc">
  <title id="title">Nexun</title>
  <desc id="desc">Pixel art purple kraken icon and Nexun wordmark</desc>
  <rect width="720" height="220" rx="18" fill="#0b0a16"/>
  <g shape-rendering="crispEdges" transform="translate(54 32)">
    <rect x="40" y="0" width="80" height="12" fill="#c084fc"/>
    <rect x="24" y="12" width="112" height="88" fill="#a855f7"/>
    <rect x="12" y="32" width="136" height="60" fill="#9333ea"/>
    <rect x="40" y="24" width="32" height="32" fill="#160d2b"/>
    <rect x="88" y="24" width="32" height="32" fill="#160d2b"/>
    <rect x="48" y="32" width="12" height="12" fill="#f5d0fe"/>
    <rect x="96" y="32" width="12" height="12" fill="#f5d0fe"/>
    <rect x="60" y="64" width="48" height="12" fill="#160d2b"/>
    <rect x="0" y="88" width="36" height="24" fill="#7e22ce"/>
    <rect x="112" y="88" width="36" height="24" fill="#7e22ce"/>
    <rect x="12" y="112" width="36" height="20" fill="#a855f7"/>
    <rect x="100" y="112" width="36" height="20" fill="#a855f7"/>
    <rect x="36" y="100" width="28" height="56" fill="#7e22ce"/>
    <rect x="84" y="100" width="28" height="56" fill="#7e22ce"/>
    <rect x="60" y="96" width="28" height="60" fill="#c084fc"/>
  </g>
  <text x="260" y="112" fill="#f5f3ff" font-family="Arial, sans-serif" font-size="58" font-weight="700" letter-spacing="3">NEXUN</text>
  <text x="264" y="146" fill="#b879ff" font-family="Consolas, monospace" font-size="15" letter-spacing="3">AUTOMATION WORKSPACE</text>
</svg>
